<svg width="1500" height="1500" viewBox="0 0 1500 1500" fill="none" xmlns="http://www.w3.org/2000/svg">
<rect width="1500" height="1500" rx="750" fill="#0B0B0B"/>
<path d="M398.265 984.466C411.858 1008.24 443.419 1014.33 464.873 997.313L469.944 993.292L332.408 750L469.944 506.708L464.873 502.687C443.419 485.674 411.858 491.762 398.265 515.534L276.903 727.784C269.032 741.548 269.032 758.452 276.903 772.216L398.265 984.466Z" fill="white"/>
<path d="M1104.98 516.263C1091.54 492.193 1059.75 485.894 1038.15 503.02L1033.5 506.708L1171.04 750L1033.5 993.293L1038.15 996.98C1059.75 1014.11 1091.54 1007.81 1104.98 983.737L1223.32 771.821C1230.89 758.26 1230.89 741.74 1223.32 728.179L1104.98 516.263Z" fill="white"/>
<path fill-rule="evenodd" clip-rule="evenodd" d="M932.867 839.487H888.48L717.182 569.348L689.519 525.723L677.923 503.911H689.473H718.655C726.311 503.911 733.435 507.829 737.537 514.296L880.231 739.234C882.63 743.016 888.48 741.315 888.48 736.836V510.589C888.48 506.901 891.466 503.815 895.152 503.825C895.365 503.825 895.579 503.826 895.795 503.828C904.102 503.897 911.536 513.426 917.47 519.243L941.808 543.103C950.393 551.519 955.23 563.036 955.23 575.06V817.115C955.23 829.471 945.218 839.487 932.867 839.487ZM911.621 529.639L926.427 543.349C934.21 551.644 945.167 562.593 945.167 573.97V800.981C945.167 829.42 945.167 829.42 921.855 829.42H905.167V763.278V531.995C905.167 527.94 908.847 526.682 911.621 529.639Z" fill="white"/>
<path fill-rule="evenodd" clip-rule="evenodd" d="M621.071 993.852H568.343C555.992 993.852 545.979 983.836 545.979 971.48V526.283C545.979 513.927 555.992 503.911 568.343 503.911H637.924C641.354 503.911 644.546 505.669 646.378 508.57L952.994 993.852H933.985H885.724C878.068 993.852 870.944 989.934 866.841 983.467L651.684 644.299C649.284 640.517 643.435 642.217 643.435 646.697V971.48C643.435 983.836 633.422 993.852 621.071 993.852ZM898.018 962.006H913.786L643.435 535.757V599.449L656.61 620.219L860.254 941.237C868.458 954.17 882.706 962.006 898.018 962.006Z" fill="white"/>
</svg>
