<svg width="102" height="56" viewBox="0 0 102 56" fill="none" xmlns="http://www.w3.org/2000/svg">
<path d="M22.0784 53.9507L22.4106 53.6856L22.2025 53.315L7.98354 28L22.2025 2.68495L22.4106 2.3144L22.0784 2.04929L21.5491 1.62686C19.0683 -0.353101 15.4196 0.357016 13.8497 3.12044L1.1814 25.4191C0.272866 27.0183 0.272867 28.9817 1.1814 30.5809L13.8497 52.8796C15.4196 55.643 19.0683 56.3531 21.5491 54.3731L22.0784 53.9507ZM80.2812 2.0493L79.949 2.31441L80.1572 2.68496L94.3761 28L80.1572 53.3151L79.949 53.6856L80.2812 53.9507L80.7666 54.3381C83.2641 56.3313 86.9395 55.5965 88.4919 52.7986L100.844 30.535C101.719 28.9595 101.719 27.0405 100.844 25.465L88.4919 3.20139C86.9395 0.403551 83.2641 -0.331328 80.7666 1.66191L80.2812 2.0493ZM65.0321 37.6679L65.1792 37.9013H65.4551H70.0884C71.657 37.9013 72.9228 36.622 72.9228 35.051V9.62108C72.9228 8.22465 72.3646 6.88627 71.3729 5.90783L68.8324 3.40117C68.7473 3.31722 68.6478 3.21304 68.539 3.09909C68.3083 2.85749 68.0357 2.57197 67.7694 2.34225C67.3694 1.99728 66.8423 1.64279 66.2228 1.63761L66.153 1.63722C65.4779 1.63535 64.9551 2.19743 64.9551 2.84782V26.5041L50.122 2.97067C49.6028 2.14689 48.7 1.6463 47.728 1.6463H44.6819H43.4763H42.6468L43.0342 2.37981L44.2446 4.67139L44.2535 4.68826L44.2637 4.70441L47.1512 9.28756L65.0321 37.6679ZM67.697 29.3949V5.37078L69.0625 6.64338C69.1047 6.68854 69.1472 6.73401 69.1901 6.77977C69.568 7.18343 69.9679 7.61063 70.2912 8.06604C70.6571 8.5816 70.8723 9.06363 70.8723 9.50656V33.356C70.8723 34.1129 70.8718 34.646 70.8363 35.0382C70.7998 35.4413 70.7324 35.5907 70.6804 35.6545C70.6463 35.6964 70.5704 35.7617 70.2781 35.8016C69.9777 35.8426 69.5622 35.8437 68.9389 35.8437H67.697V29.3949ZM72.1893 54.1187H73.0936L72.6128 53.3528L43.2397 6.56357C41.3188 3.5037 37.9596 1.6463 34.3468 1.6463H32.0379C30.4693 1.6463 29.2035 2.92565 29.2035 4.49663V51.2683C29.2035 52.8393 30.4693 54.1187 32.0379 54.1187H37.5419C39.1105 54.1187 40.3763 52.8393 40.3763 51.2683V17.2601L62.7734 52.7943C63.2926 53.6181 64.1955 54.1187 65.1674 54.1187H70.2051H72.1893ZM40.3763 7.22324L67.1906 49.773H66.4508C65.0252 49.773 63.6971 49.0387 62.9317 47.8244L41.6745 14.0988L40.3763 12.039V7.22324Z" stroke="white"/>
</svg>
