<svg width="100" height="54" viewBox="0 0 100 54" fill="none" xmlns="http://www.w3.org/2000/svg">
<path d="M13.2844 51.6326C14.7033 54.1301 17.9978 54.7697 20.2372 52.9823L20.7665 52.5599L6.41007 27L20.7665 1.44009L20.2372 1.01765C17.9978 -0.769673 14.7033 -0.130109 13.2844 2.36743L0.616141 24.6661C-0.205381 26.1121 -0.20538 27.8879 0.616141 29.3339L13.2844 51.6326Z" fill="white"/>
<path d="M87.0546 2.44397C85.6516 -0.0847333 82.333 -0.746585 80.0785 1.0527L79.5931 1.4401L93.9496 27L79.5931 52.5599L80.0785 52.9473C82.333 54.7466 85.6516 54.0848 87.0546 51.556L99.4072 29.2925C100.198 27.8678 100.198 26.1322 99.4072 24.7076L87.0546 2.44397Z" fill="white"/>
<path fill-rule="evenodd" clip-rule="evenodd" d="M69.0884 36.4013H64.4551L46.5743 8.02103L43.6867 3.43788L42.4763 1.1463H43.6819H46.728C47.5272 1.1463 48.2708 1.55791 48.699 2.23728L63.594 25.8689C63.8445 26.2662 64.4551 26.0876 64.4551 25.617V1.84782C64.4551 1.46038 64.7668 1.13616 65.1516 1.13722C65.1738 1.13728 65.1961 1.13741 65.2186 1.13759C66.0858 1.14485 66.8618 2.14596 67.4812 2.75709L70.0217 5.26375C70.9178 6.14787 71.4228 7.3579 71.4228 8.62108V34.051C71.4228 35.3491 70.3776 36.4013 69.0884 36.4013ZM66.8707 3.84918L68.4162 5.28955C69.2286 6.16102 70.3723 7.31135 70.3723 8.50656V32.356C70.3723 35.3437 70.3723 35.3437 67.9389 35.3437H66.197V28.3949V4.09672C66.197 3.67072 66.5811 3.53858 66.8707 3.84918Z" fill="white"/>
<path fill-rule="evenodd" clip-rule="evenodd" d="M36.5419 52.6187H31.0379C29.7486 52.6187 28.7035 51.5664 28.7035 50.2683V3.49663C28.7035 2.19857 29.7486 1.1463 31.0379 1.1463H33.3468C36.7876 1.1463 39.9868 2.91525 41.8162 5.82942L71.1893 52.6187H69.2051H64.1674C63.3682 52.6187 62.6246 52.2071 62.1964 51.5277L39.7373 15.8953C39.4869 15.4979 38.8763 15.6765 38.8763 16.1471V50.2683C38.8763 51.5664 37.8311 52.6187 36.5419 52.6187ZM65.4508 49.273H67.0967L38.8763 4.492V11.1834L40.2515 13.3654L61.5088 47.091C62.3652 48.4497 63.8524 49.273 65.4508 49.273Z" fill="white"/>
</svg>
