<svg width="38" height="8" viewBox="0 0 38 8" fill="none" xmlns="http://www.w3.org/2000/svg">
<path d="M1 4.75C0.723858 4.75 0.5 4.52614 0.5 4.25C0.5 3.97386 0.723858 3.75 1 3.75L1 4.75ZM37.3536 3.89644C37.5488 4.09171 37.5488 4.40829 37.3536 4.60355L34.1716 7.78553C33.9763 7.98079 33.6597 7.98079 33.4645 7.78553C33.2692 7.59027 33.2692 7.27369 33.4645 7.07842L36.2929 4.25L33.4645 1.42157C33.2692 1.22631 33.2692 0.909725 33.4645 0.714463C33.6597 0.519201 33.9763 0.519201 34.1716 0.714463L37.3536 3.89644ZM1 3.75L37 3.75L37 4.75L1 4.75L1 3.75Z" fill="#F5F5F5"/>
</svg>
