<svg width="38" height="8" viewBox="0 0 38 8" fill="none" xmlns="http://www.w3.org/2000/svg">
<path d="M37 4.75C37.2761 4.75 37.5 4.52614 37.5 4.25C37.5 3.97386 37.2761 3.75 37 3.75L37 4.75ZM0.646446 3.89644C0.451183 4.09171 0.451183 4.40829 0.646446 4.60355L3.82843 7.78553C4.02369 7.98079 4.34027 7.98079 4.53553 7.78553C4.7308 7.59027 4.7308 7.27369 4.53553 7.07842L1.70711 4.25L4.53553 1.42157C4.7308 1.22631 4.7308 0.909725 4.53553 0.714463C4.34027 0.519201 4.02369 0.519201 3.82843 0.714463L0.646446 3.89644ZM37 3.75L1 3.75L1 4.75L37 4.75L37 3.75Z" fill="#F5F5F5"/>
</svg>
