<svg width="64" height="64" viewBox="0 0 64 64" fill="none" xmlns="http://www.w3.org/2000/svg">
<path fill-rule="evenodd" clip-rule="evenodd" d="M28.252 0.0869814C18.3281 1.28028 9.5523 7.00068 4.41893 15.6222C2.38335 19.0409 1.06935 22.6546 0.351015 26.8099C0.0213597 28.7168 -0.109404 33.2058 0.10421 35.2852C1.47549 48.6335 11.0092 59.7586 23.9472 63.1082C26.8205 63.8522 28.1096 63.9972 31.8704 63.9999C35.6217 64.0028 36.6637 63.8966 39.4193 63.2308C50.9759 60.4385 60.1629 51.2936 62.9875 39.771C63.324 38.3979 63.7505 35.8756 63.7505 35.2578C63.7505 34.9932 63.8066 34.7419 63.8752 34.6993C63.9523 34.6515 64 33.5685 64 31.8669C64 30.0621 63.957 29.1386 63.8752 29.1893C63.8004 29.2357 63.7505 29.0758 63.7505 28.7897C63.7503 27.4435 62.9848 23.8913 62.188 21.5396C58.7964 11.5305 50.2538 3.57645 40.0635 0.939532C37.266 0.21559 35.9045 0.0490374 32.4319 0.00620954C30.682 -0.0153296 28.801 0.0209864 28.252 0.0869814ZM46.1572 18.654C42.416 19.9723 12.5946 31.3462 12.3869 31.5338C12.2396 31.6672 12.0938 31.9078 12.0631 32.0689C11.9893 32.4567 12.2602 33.0806 12.5761 33.2503C12.7153 33.325 14.7496 34.0337 17.0966 34.8249L21.364 36.2636L22.1876 35.7424C22.6407 35.4558 27.1383 32.6 32.1824 29.3963C37.2264 26.1924 41.4747 23.5475 41.623 23.5188C41.9324 23.4587 42.2371 23.8911 42.076 24.1616C42.0218 24.2529 38.6644 27.3583 34.6155 31.0623C30.5665 34.7664 27.0438 38.0019 26.7871 38.2524L26.3204 38.7077L25.8872 42.8397L25.4539 46.9716L25.7103 47.1889C25.9182 47.3651 26.0177 47.3789 26.2356 47.2619C26.3835 47.1825 27.6215 46.0561 28.9869 44.7586C30.6116 43.2148 31.5171 42.4376 31.6074 42.5092C32.25 43.0186 39.6916 48.5043 39.9808 48.6818C40.8099 49.191 42.0523 48.8485 42.5524 47.9731C42.6741 47.7599 44.0152 41.6161 45.6548 33.7601C48.8201 18.5949 48.7123 19.3046 47.9321 18.7573C47.3762 18.3675 47.0277 18.3472 46.1572 18.654ZM0.0438192 32.0069C0.0438192 33.5566 0.0616621 34.1906 0.0836225 33.4157C0.105458 32.6409 0.105458 31.373 0.0836225 30.5981C0.0616621 29.8233 0.0438192 30.4572 0.0438192 32.0069Z" fill="#F5F5F5"/>
<path d="M46.1572 18.654C42.416 19.9723 12.5946 31.3462 12.3869 31.5338C12.2396 31.6672 12.0938 31.9078 12.0631 32.0689C11.9893 32.4567 12.2602 33.0806 12.5761 33.2503C12.7153 33.325 14.7496 34.0337 17.0966 34.8249L21.364 36.2636L22.1876 35.7424C22.6407 35.4558 27.1383 32.6 32.1824 29.3963C37.2264 26.1924 41.4747 23.5475 41.623 23.5188C41.9324 23.4587 42.2371 23.8911 42.076 24.1616C42.0218 24.2529 38.6644 27.3583 34.6155 31.0623C30.5665 34.7664 27.0438 38.0019 26.7871 38.2524L26.3204 38.7077L25.8872 42.8397L25.4539 46.9716L25.7103 47.1889C25.9182 47.3651 26.0177 47.3789 26.2356 47.2619C26.3835 47.1825 27.6215 46.0561 28.9869 44.7586C30.6116 43.2148 31.5171 42.4376 31.6074 42.5092C32.25 43.0186 39.6916 48.5043 39.9808 48.6818C40.8099 49.191 42.0523 48.8485 42.5524 47.9731C42.6741 47.7599 44.0152 41.6161 45.6548 33.7601C48.8201 18.5949 48.7123 19.3046 47.9321 18.7573C47.3762 18.3675 47.0277 18.3472 46.1572 18.654Z" fill="#0A0A0A"/>
</svg>
