<svg width="64" height="64" viewBox="0 0 64 64" fill="none" xmlns="http://www.w3.org/2000/svg">
<path fill-rule="evenodd" clip-rule="evenodd" d="M28.252 0.0869814C18.3281 1.28028 9.5523 7.00068 4.41893 15.6222C2.38335 19.0409 1.06935 22.6546 0.351015 26.8099C0.0213597 28.7168 -0.109404 33.2058 0.10421 35.2852C1.47549 48.6335 11.0092 59.7586 23.9472 63.1082C26.8205 63.8522 28.1096 63.9972 31.8704 63.9999C35.6217 64.0028 36.6637 63.8966 39.4193 63.2308C50.9759 60.4385 60.1629 51.2936 62.9875 39.771C63.324 38.3979 63.7505 35.8756 63.7505 35.2578C63.7505 34.9932 63.8066 34.7419 63.8752 34.6993C63.9523 34.6515 64 33.5685 64 31.8669C64 30.0621 63.957 29.1386 63.8752 29.1893C63.8001 29.2359 63.7505 29.0696 63.7505 28.7708C63.7505 28.1404 63.3273 25.6294 62.9875 24.2428C60.2254 12.9749 51.228 3.82866 40.0635 0.939532C37.266 0.21559 35.9045 0.0490374 32.4319 0.00620953C30.682 -0.0153296 28.801 0.0209864 28.252 0.0869814ZM30.6538 12.9822C26.5022 13.4962 22.6608 15.4532 19.7049 18.5596C17.3718 21.0114 15.9355 23.7005 15.1311 27.123C14.6724 29.0747 14.5937 31.9152 14.9421 33.9479C15.2519 35.7555 15.7953 37.4862 16.5182 38.9683L17.0533 40.065L15.866 44.6799C15.2131 47.2182 14.7075 49.3238 14.7426 49.3589C14.7778 49.3941 16.9292 48.8897 19.5238 48.238L24.2412 47.0531L24.9822 47.4286C26.0657 47.9774 28.4512 48.7381 29.8024 48.9652C31.3419 49.2242 34.2706 49.2242 35.8101 48.9652C42.6002 47.8232 48.2797 42.7311 50.2076 36.0568C51.228 32.5243 51.0883 28.347 49.8334 24.8689C48.9251 22.3512 47.6247 20.3287 45.5984 18.2823C42.8839 15.541 40.0225 13.9885 36.2505 13.2105C34.7907 12.9093 32.1212 12.8005 30.6538 12.9822ZM31.4337 15.9836C27.8241 16.3051 24.4362 17.9508 21.9005 20.6146C19.9433 22.6705 18.6394 25.1861 18.0079 28.1248C17.7293 29.4212 17.6969 32.2423 17.9444 33.6349C18.2589 35.4034 18.9791 37.333 19.9308 38.957L20.2978 39.5832L19.5642 42.39C19.1608 43.9338 18.845 45.2107 18.8624 45.2276C18.8796 45.2443 20.203 44.9503 21.8031 44.5742L24.7125 43.8904L25.983 44.5188C28.2664 45.6481 30.3894 46.1576 32.8119 46.1576C39.6856 46.1576 45.7081 41.4831 47.4029 34.8325C49.3008 27.3852 45.3577 19.6939 38.2257 16.931C36.1895 16.1423 33.6425 15.787 31.4337 15.9836ZM26.2809 23.0459C24.1849 23.7962 23.3973 25.6651 24.068 28.2969C24.5965 30.3709 25.857 32.4449 27.7948 34.4286C31.1773 37.8912 35.2279 39.858 38.4699 39.612C40.517 39.4566 41.8241 38.2874 42.1056 36.3602C42.238 35.4532 42.1237 35.2036 41.3844 34.7852C40.5645 34.3211 38.6417 33.5567 37.9979 33.4387C37.456 33.3396 37.5771 33.2363 36.3932 34.8074L35.7456 35.6668L35.1181 35.5944C33.6903 35.4297 30.8717 33.503 29.4671 31.7314C28.8283 30.9258 28.1932 29.7523 28.1908 29.3732C28.1901 29.2679 28.6082 28.7326 29.1199 28.1836C29.6997 27.5616 30.0522 27.0779 30.0557 26.8997C30.0654 26.3973 28.7109 24.0052 27.9661 23.2096C27.5984 22.8168 27.0655 22.765 26.2809 23.0459ZM0.0438192 32.0069C0.0438192 33.5566 0.0616621 34.1906 0.0836225 33.4157C0.105458 32.6409 0.105458 31.373 0.0836225 30.5981C0.0616621 29.8233 0.0438192 30.4572 0.0438192 32.0069Z" fill="#F5F5F5"/>
<path fill-rule="evenodd" clip-rule="evenodd" d="M30.6538 12.9822C26.5022 13.4962 22.6608 15.4532 19.7049 18.5596C17.3718 21.0114 15.9355 23.7005 15.1311 27.123C14.6724 29.0747 14.5937 31.9152 14.9421 33.9479C15.2519 35.7555 15.7953 37.4862 16.5182 38.9683L17.0533 40.065L15.866 44.6799C15.2131 47.2182 14.7075 49.3238 14.7426 49.3589C14.7778 49.3941 16.9292 48.8897 19.5238 48.238L24.2412 47.0531L24.9822 47.4286C26.0657 47.9774 28.4512 48.7381 29.8024 48.9652C31.3419 49.2242 34.2706 49.2242 35.8101 48.9652C42.6002 47.8232 48.2797 42.7311 50.2076 36.0568C51.228 32.5243 51.0883 28.347 49.8334 24.8689C48.9251 22.3512 47.6247 20.3287 45.5984 18.2823C42.8839 15.541 40.0225 13.9885 36.2505 13.2105C34.7907 12.9093 32.1212 12.8005 30.6538 12.9822ZM21.9005 20.6146C24.4362 17.9508 27.8241 16.3051 31.4337 15.9836C33.6425 15.787 36.1895 16.1423 38.2257 16.931C45.3577 19.6939 49.3008 27.3852 47.4029 34.8325C45.7081 41.4831 39.6856 46.1576 32.8119 46.1576C30.3894 46.1576 28.2664 45.6481 25.983 44.5188L24.7125 43.8904L21.8031 44.5742C20.203 44.9503 18.8796 45.2443 18.8624 45.2276C18.845 45.2107 19.1608 43.9338 19.5642 42.39L20.2978 39.5832L19.9308 38.957C18.9791 37.333 18.2589 35.4034 17.9444 33.6349C17.6969 32.2423 17.7293 29.4212 18.0079 28.1248C18.6394 25.1861 19.9433 22.6705 21.9005 20.6146Z" fill="#0A0A0A"/>
<path d="M26.2809 23.0459C24.1849 23.7962 23.3973 25.6651 24.068 28.2969C24.5965 30.3709 25.857 32.4449 27.7948 34.4286C31.1773 37.8912 35.2279 39.858 38.4699 39.612C40.517 39.4566 41.8241 38.2874 42.1056 36.3602C42.238 35.4532 42.1237 35.2036 41.3844 34.7852C40.5645 34.3211 38.6417 33.5567 37.9979 33.4387C37.456 33.3396 37.5771 33.2363 36.3932 34.8074L35.7456 35.6668L35.1181 35.5944C33.6903 35.4297 30.8717 33.503 29.4671 31.7314C28.8283 30.9258 28.1932 29.7523 28.1908 29.3732C28.1901 29.2679 28.6082 28.7326 29.1199 28.1836C29.6997 27.5616 30.0522 27.0779 30.0557 26.8997C30.0654 26.3973 28.7109 24.0052 27.9661 23.2096C27.5984 22.8168 27.0655 22.765 26.2809 23.0459Z" fill="#0A0A0A"/>
</svg>
