<svg width="429" height="230" viewBox="0 0 429 230" fill="none" xmlns="http://www.w3.org/2000/svg">
<path d="M56.9075 219.682C62.9857 230.308 77.0985 233.029 86.6919 225.425L88.9593 223.627L27.4593 114.877L88.9593 6.12717L86.6919 4.32982C77.0985 -3.27473 62.9857 -0.553574 56.9074 10.0727L2.63941 104.947C-0.879805 111.099 -0.879803 118.655 2.63941 124.807L56.9075 219.682Z" fill="white"/>
<path d="M372.923 10.3984C366.913 -0.360516 352.696 -3.1765 343.039 4.47894L340.959 6.1272L402.459 114.877L340.959 223.627L343.039 225.275C352.696 232.931 366.913 230.115 372.923 219.356L425.838 124.631C429.224 118.569 429.224 111.185 425.838 105.123L372.923 10.3984Z" fill="white"/>
<path fill-rule="evenodd" clip-rule="evenodd" d="M295.959 154.877H276.111L199.514 34.1272L187.144 14.6272L181.959 4.87716H187.124H200.173C203.596 4.87716 206.782 6.62844 208.616 9.51898L272.423 110.065C273.496 111.755 276.111 110.995 276.111 108.993V7.86194C276.111 6.21349 277.446 4.83402 279.095 4.83855C279.19 4.83882 279.286 4.83933 279.382 4.84013C283.097 4.87099 286.421 9.13042 289.074 11.7306L299.958 22.3957C303.796 26.1574 305.959 31.3057 305.959 36.6802V144.877C305.959 150.4 301.482 154.877 295.959 154.877ZM286.459 16.3772L293.08 22.5055C296.56 26.2133 301.459 31.1077 301.459 36.193V137.665C301.459 150.377 301.459 150.377 291.035 150.377H283.573V120.812V17.4303C283.573 15.6178 285.219 15.0556 286.459 16.3772Z" fill="white"/>
<path fill-rule="evenodd" clip-rule="evenodd" d="M156.537 223.877H132.959C127.436 223.877 122.959 219.4 122.959 213.877V14.8771C122.959 9.3543 127.436 4.87716 132.959 4.87716H161.028C164.458 4.87716 167.648 6.63499 169.481 9.5343L304.959 223.877H296.459H274.879C271.456 223.877 268.27 222.126 266.436 219.235L170.226 67.6297C169.153 65.9392 166.537 66.6991 166.537 68.7013V213.877C166.537 219.4 162.06 223.877 156.537 223.877ZM280.377 209.642H287.427L166.537 19.1122V47.5822L172.429 56.8658L263.49 200.359C267.159 206.14 273.53 209.642 280.377 209.642Z" fill="white"/>
</svg>
