<svg width="39" height="22" viewBox="0 0 39 22" fill="none" xmlns="http://www.w3.org/2000/svg">
<mask id="path-1-inside-1_505_30" fill="white">
<path fill-rule="evenodd" clip-rule="evenodd" d="M17.4255 0H1.65957L3.18085 0.814815L16.5957 8L17.4255 8.44444V0.814815V0ZM13.6374 8.96296L12.1221 8.14815L0.829787 2.07584L0 1.62963V7.33333V8.96296H0.829787H13.6374ZM22.4043 0V0.814815V8.38095L22.8191 8.14815L35.8883 0.814815L37.3404 0H22.4043ZM39 8.96296H38.1702H26.012L27.4551 8.14815L38.1702 2.09815L39 1.62963V7.33333V8.96296ZM0 14.6667V13.037H0.829787H13.6374L12.1221 13.8519L0.829787 19.9242L0 20.3704V14.6667ZM1.65957 22L3.18085 21.1852L16.8723 13.8519L17.4255 13.5556V21.1852V22H1.65957ZM39 13.037H38.1702H26.012L27.4551 13.8519L38.1702 19.9019L39 20.3704V14.6667V13.037ZM22.4043 13.619V21.1852V22H37.3404L35.8883 21.1852L22.8192 13.8519L22.4043 13.619Z"/>
<path d="M0 20.3704C0 21.2704 0.729609 22 1.62963 22H1.65957L3.18085 21.1852H2.09081C1.39437 21.1852 0.829787 20.6206 0.829787 19.9242L0 20.3704Z"/>
<path d="M0 8.96296V13.037H0.829787V8.96296H0Z"/>
<path d="M1.62963 0C0.72961 0 0 0.72961 0 1.62963L0.829787 2.07584C0.829787 1.37939 1.39437 0.814815 2.09081 0.814815H3.18085L1.65957 0H1.62963Z"/>
<path d="M22.4043 0H17.4255V0.814815H22.4043V0Z"/>
<path d="M39 1.62963C39 0.72961 38.2704 0 37.3704 0H37.3404L35.8883 0.814815H36.8869C37.5956 0.814815 38.1702 1.38938 38.1702 2.09815L39 1.62963Z"/>
<path d="M39 13.037V8.96296H38.1702V13.037H39Z"/>
<path d="M37.3404 22H37.3704C38.2704 22 39 21.2704 39 20.3704L38.1702 19.9019C38.1702 20.6106 37.5956 21.1852 36.8869 21.1852H35.8883L37.3404 22Z"/>
<path d="M17.4255 22H22.4043V21.1852H17.4255V22Z"/>
<path d="M22.4043 8.96296H26.012L27.4551 8.14815H22.8191L22.4043 8.38095V8.96296Z"/>
<path d="M13.6374 8.96296H17.4255V8.44444L16.5957 8V8.14815H12.1221L13.6374 8.96296Z"/>
<path d="M22.4043 13.037V13.619L22.8192 13.8519H27.4551L26.012 13.037H22.4043Z"/>
<path d="M17.4255 13.5556V13.037H13.6374L12.1221 13.8519H16.8723L17.4255 13.5556Z"/>
</mask>
<path d="M17.4255 13.037H16.9255V13.537H17.4255V13.037ZM22.4043 13.037V13.537H22.9043V13.037H22.4043ZM22.4043 8.96296H22.9043V8.46296H22.4043V8.96296ZM17.4255 8.96296V8.46296H16.9255V8.96296H17.4255ZM19.9149 9.77778L19.6788 10.2185L19.6866 10.2227L19.6945 10.2266L19.9149 9.77778ZM19.9149 12.2222L20.1596 11.7862L19.9205 11.652L19.6788 11.7815L19.9149 12.2222ZM13.6374 13.037L13.4006 12.5967L13.6374 13.037ZM17.4255 13.5556L17.6616 13.9963L17.4255 13.5556ZM26.012 13.037L25.7662 13.4724V13.4724L26.012 13.037ZM22.4043 13.619L22.1596 14.0551L22.1596 14.0551L22.4043 13.619ZM22.4043 8.38095L22.1596 7.94491L22.4043 8.38095ZM26.012 8.96296L26.2579 9.39835L26.012 8.96296ZM17.4255 8.44444L17.6616 8.00368L17.4255 8.44444ZM13.6374 8.96296L13.4006 9.40333L13.6374 8.96296ZM17.4255 13.537H22.4043V12.537H17.4255V13.537ZM22.4043 8.46296H17.4255V9.46296H22.4043V8.46296ZM22.9043 13.037V11H21.9043V13.037H22.9043ZM22.9043 11V8.96296H21.9043V11H22.9043ZM19.6945 10.2266L22.1839 11.4488L22.6246 10.5512L20.1353 9.32896L19.6945 10.2266ZM16.9255 8.96296V11H17.9255V8.96296H16.9255ZM16.9255 11V13.037H17.9255V11H16.9255ZM19.6788 11.7815L17.1895 13.1148L17.6616 13.9963L20.151 12.663L19.6788 11.7815ZM17.1887 10.5596L13.4006 12.5967L13.8742 13.4774L17.6623 11.4404L17.1887 10.5596ZM19.6702 12.6583L22.1596 14.0551L22.6489 13.183L20.1596 11.7862L19.6702 12.6583ZM26.2579 12.6016L22.6501 10.5646L22.1584 11.4354L25.7662 13.4724L26.2579 12.6016ZM22.6501 11.4354L26.2579 9.39835L25.7662 8.52757L22.1584 10.5646L22.6501 11.4354ZM22.1596 7.94491L19.6702 9.34173L20.1596 10.2138L22.6489 8.817L22.1596 7.94491ZM20.151 9.33702L17.6616 8.00368L17.1895 8.8852L19.6788 10.2185L20.151 9.33702ZM17.6623 10.5596L13.8742 8.52259L13.4006 9.40333L17.1887 11.4404L17.6623 10.5596ZM37.5851 21.564L36.133 20.7491L35.6436 21.6212L37.0958 22.436L37.5851 21.564ZM37.9244 20.3372L38.7542 20.8058L39.2458 19.935L38.416 19.4665L37.9244 20.3372ZM39 12.537H38.1702V13.537H39V12.537ZM38.1702 9.46296H39V8.46296H38.1702V9.46296ZM38.7542 1.19424L37.9244 1.66276L38.416 2.53354L39.2458 2.06502L38.7542 1.19424ZM37.0958 -0.436045L35.6436 0.37877L36.133 1.25086L37.5851 0.436045L37.0958 -0.436045ZM22.9043 0.814815V0H21.9043V0.814815H22.9043ZM17.9255 0.814815V0H16.9255V0.814815H17.9255ZM1.4235 0.440759L2.94478 1.25557L3.41693 0.374056L1.89565 -0.440759L1.4235 0.440759ZM1.06659 1.63547L0.236803 1.18926L-0.236803 2.07L0.592984 2.51621L1.06659 1.63547ZM0 9.46296H0.829787V8.46296H0V9.46296ZM0.829787 12.537H0V13.537H0.829787V12.537ZM0.236803 20.8107L1.06659 20.3645L0.592984 19.4838L-0.236803 19.93L0.236803 20.8107ZM2.94478 20.7444L1.4235 21.5592L1.89565 22.4408L3.41693 21.6259L2.94478 20.7444ZM17.9255 22V21.1852H16.9255V22H17.9255ZM21.9043 21.1852V22H22.9043V21.1852H21.9043ZM13.8742 8.52259L12.3589 7.70778L11.8853 8.58852L13.4006 9.40333L13.8742 8.52259ZM16.3597 8.44076L17.1895 8.8852L17.6616 8.00368L16.8318 7.55924L16.3597 8.44076ZM12.3589 14.2922L13.8742 13.4774L13.4006 12.5967L11.8853 13.4115L12.3589 14.2922ZM17.1895 13.1148L16.6363 13.4111L17.1084 14.2926L17.6616 13.9963L17.1895 13.1148ZM23.0638 13.4158L22.6489 13.183L22.1596 14.0551L22.5745 14.2879L23.0638 13.4158ZM25.7662 13.4724L27.2093 14.2872L27.701 13.4165L26.2579 12.6016L25.7662 13.4724ZM27.2093 7.71276L25.7662 8.52757L26.2579 9.39835L27.701 8.58354L27.2093 7.71276ZM22.5745 7.7121L22.1596 7.94491L22.6489 8.817L23.0638 8.58419L22.5745 7.7121ZM17.4255 13.037H18.4255V12.037H17.4255V13.037ZM22.4043 13.037V12.037H21.4043V13.037H22.4043ZM22.4043 8.96296H21.4043V9.96296H22.4043V8.96296ZM17.4255 8.96296V9.96296H18.4255V8.96296H17.4255ZM35.8883 21.1852L35.399 22.0573L35.6269 22.1852H35.8883V21.1852ZM38.1702 13.037V14.037H39.1702V13.037H38.1702ZM38.1702 8.96296H39.1702V7.96296H38.1702V8.96296ZM35.8883 0.814815V-0.185185H35.6269L35.399 -0.0572753L35.8883 0.814815ZM22.4043 0.814815H23.4043V-0.185185H22.4043V0.814815ZM17.4255 0.814815V-0.185185H16.4255V0.814815H17.4255ZM3.18085 0.814815L3.653 -0.0667025L3.43179 -0.185185H3.18085V0.814815ZM0.829787 8.96296V7.96296H-0.170213V8.96296H0.829787ZM0.829787 13.037H-0.170213V14.037H0.829787V13.037ZM3.18085 21.1852V22.1852H3.43179L3.653 22.0667L3.18085 21.1852ZM17.4255 21.1852H16.4255V22.1852H17.4255V21.1852ZM22.4043 21.1852V22.1852H23.4043V21.1852H22.4043ZM12.1221 8.14815L11.6485 9.02888L11.8703 9.14815H12.1221V8.14815ZM16.5957 8.14815V9.14815H17.5957V8.14815H16.5957ZM16.5957 8H17.5957V7.4012L17.0679 7.11848L16.5957 8ZM12.1221 13.8519V12.8519H11.8703L11.6485 12.9711L12.1221 13.8519ZM16.8723 13.8519L17.3445 14.7334L16.8723 12.8519V13.8519ZM22.8192 13.8519V12.8519H18.9934L22.3298 14.7239L22.8192 13.8519ZM27.4551 13.8519L27.9468 12.9811L27.7179 12.8519H27.4551V13.8519ZM27.4551 8.14815V9.14815H27.7179L27.9468 9.01893L27.4551 8.14815ZM22.8191 8.14815L22.3298 7.27606L18.9934 9.14815H22.8191V8.14815ZM17.4255 1H22.4043V-1H17.4255V1ZM22.4043 21H17.4255V23H22.4043V21ZM1 14.6667V13.037H-1V14.6667H1ZM38 13.037V14.6667H40V13.037H38ZM1 13.037V8.96296H-1V13.037H1ZM1 8.96296V7.33333H-1V8.96296H1ZM38 7.33333V8.96296H40V7.33333H38ZM38 8.96296V13.037H40V8.96296H38ZM22.4043 1H37.3404V-1H22.4043V1ZM37.3404 1H37.3704V-1H37.3404V1ZM38 1.62963V7.33333H40V1.62963H38ZM1 20.3704V14.6667H-1V20.3704H1ZM1 7.33333V1.62963H-1V7.33333H1ZM1.62963 1H1.65957V-1H1.62963V1ZM1.65957 1H17.4255V-1H1.65957V1ZM17.4255 21H1.65957V23H17.4255V21ZM1.65957 21H1.62963V23H1.65957V21ZM37.3704 21H37.3404V23H37.3704V21ZM37.3404 21H22.4043V23H37.3404V21ZM38 14.6667V20.3704H40V14.6667H38ZM18.4255 13.5556V13.037H16.4255V13.5556H18.4255ZM13.6374 14.037H17.4255V12.037H13.6374V14.037ZM21.4043 13.037V13.619H23.4043V13.037H21.4043ZM22.4043 14.037H26.012V12.037H22.4043V14.037ZM22.4043 9.96296H26.012V7.96296H22.4043V9.96296ZM21.4043 8.38095V8.96296H23.4043V8.38095H21.4043ZM13.6374 9.96296H17.4255V7.96296H13.6374V9.96296ZM16.4255 8.44444V8.96296H18.4255V8.44444H16.4255ZM35.8883 22.1852H36.8869V20.1852H35.8883V22.1852ZM38.1702 12.037H26.012V14.037H38.1702V12.037ZM26.012 9.96296H38.1702V7.96296H26.012V9.96296ZM39.1702 13.037V8.96296H37.1702V13.037H39.1702ZM36.8869 -0.185185H35.8883V1.81481H36.8869V-0.185185ZM23.4043 8.38095V0.814815H21.4043V8.38095H23.4043ZM18.4255 8.44444V0.814815H16.4255V8.44444H18.4255ZM22.4043 -0.185185H17.4255V1.81481H22.4043V-0.185185ZM3.18085 -0.185185H2.09081V1.81481H3.18085V-0.185185ZM0.829787 9.96296H13.6374V7.96296H0.829787V9.96296ZM13.6374 12.037H0.829787V14.037H13.6374V12.037ZM-0.170213 8.96296V13.037H1.82979V8.96296H-0.170213ZM2.09081 22.1852H3.18085V20.1852H2.09081V22.1852ZM18.4255 21.1852V13.5556H16.4255V21.1852H18.4255ZM21.4043 13.619V21.1852H23.4043V13.619H21.4043ZM17.4255 22.1852H22.4043V20.1852H17.4255V22.1852ZM12.5957 7.26741L1.30339 1.1951L0.356182 2.95657L11.6485 9.02888L12.5957 7.26741ZM12.1221 9.14815H16.5957V7.14815H12.1221V9.14815ZM2.7087 1.69633L16.1236 8.88152L17.0679 7.11848L3.653 -0.0667025L2.7087 1.69633ZM17.5957 8.14815V8H15.5957V8.14815H17.5957ZM1.30339 20.8049L12.5957 14.7326L11.6485 12.9711L0.356182 19.0434L1.30339 20.8049ZM16.4002 12.9703L2.7087 20.3037L3.653 22.0667L17.3445 14.7334L16.4002 12.9703ZM12.1221 14.8519H16.8723V12.8519H12.1221V14.8519ZM36.3776 20.3131L23.3085 12.9798L22.3298 14.7239L35.399 22.0573L36.3776 20.3131ZM26.9635 14.7226L37.6785 20.7726L38.6619 19.0311L27.9468 12.9811L26.9635 14.7226ZM22.8192 14.8519H27.4551V12.8519H22.8192V14.8519ZM37.6785 1.22736L26.9635 7.27736L27.9468 9.01893L38.6619 2.96893L37.6785 1.22736ZM35.399 -0.0572753L22.3298 7.27606L23.3085 9.02024L36.3776 1.6869L35.399 -0.0572753ZM27.4551 7.14815H22.8191V9.14815H27.4551V7.14815ZM2.09081 -0.185185C0.842082 -0.185185 -0.170213 0.827109 -0.170213 2.07584H1.82979C1.82979 1.93168 1.94665 1.81481 2.09081 1.81481V-0.185185ZM-1 20.3704C-1 21.8227 0.177325 23 1.62963 23V21C1.28189 21 1 20.7181 1 20.3704H-1ZM39.1702 2.09815C39.1702 0.837098 38.1479 -0.185185 36.8869 -0.185185V1.81481C37.0434 1.81481 37.1702 1.94167 37.1702 2.09815H39.1702ZM37.3704 23C38.8227 23 40 21.8227 40 20.3704H38C38 20.7181 37.7181 21 37.3704 21V23ZM36.8869 22.1852C38.1479 22.1852 39.1702 21.1629 39.1702 19.9019H37.1702C37.1702 20.0583 37.0434 20.1852 36.8869 20.1852V22.1852ZM-0.170213 19.9242C-0.170213 21.1729 0.842082 22.1852 2.09081 22.1852V20.1852C1.94665 20.1852 1.82979 20.0683 1.82979 19.9242H-0.170213ZM37.3704 1C37.7181 1 38 1.28189 38 1.62963H40C40 0.177325 38.8227 -1 37.3704 -1V1ZM1 1.62963C1 1.28189 1.28189 1 1.62963 1V-1C0.177325 -1 -1 0.177325 -1 1.62963H1Z" fill="white" mask="url(#path-1-inside-1_505_30)"/>
</svg>
